<svg width="147" height="146" viewBox="0 0 147 146" fill="none" xmlns="http://www.w3.org/2000/svg">
<g id="Group 17">
<g id="Group 16">
<path id="Stroke 14" fill-rule="evenodd" clip-rule="evenodd" d="M145.3 73.1955C145.3 112.684 113.065 144.697 73.3023 144.697C33.5394 144.697 1.30469 112.684 1.30469 73.1955C1.30469 33.7068 33.5394 1.6944 73.3023 1.6944C113.065 1.6944 145.3 33.7068 145.3 73.1955Z" stroke="#1C8D61" stroke-width="2" stroke-linecap="round" stroke-linejoin="round"/>
<path id="Stroke 1" d="M66.8462 88.4963H67.8462V88.4567L67.843 88.4173L66.8462 88.4963ZM65 65.2172H64V65.2568L64.0031 65.2963L65 65.2172ZM81 65.2172L81.9965 65.3007L82 65.259V65.2172H81ZM79.0511 88.4963L78.0546 88.4129L78.0511 88.4545V88.4963H79.0511ZM66 109.5V94.4998H64V109.5H66ZM66 94.4998C66 94.5845 65.966 94.7296 65.839 94.8534C65.7144 94.975 65.5783 95 65.5126 95V93C65.1392 93 64.7469 93.1249 64.4428 93.4214C64.1365 93.7201 64 94.1151 64 94.4998H66ZM65.5126 95H80.4874V93H65.5126V95ZM80.4874 95C80.4217 95 80.2856 94.975 80.161 94.8534C80.034 94.7296 80 94.5845 80 94.4998H82C82 94.1151 81.8635 93.7201 81.5572 93.4214C81.2531 93.1249 80.8608 93 80.4874 93V95ZM80 94.4998V109.5H82V94.4998H80ZM80 109.5C80 109.415 80.034 109.27 80.161 109.147C80.2856 109.025 80.4217 109 80.4874 109V111C80.8608 111 81.2531 110.875 81.5572 110.579C81.8635 110.28 82 109.885 82 109.5H80ZM80.4874 109H65.5126V111H80.4874V109ZM65.5126 109C65.5783 109 65.7144 109.025 65.839 109.147C65.966 109.27 66 109.415 66 109.5H64C64 109.885 64.1365 110.28 64.4428 110.579C64.7469 110.875 65.1392 111 65.5126 111V109ZM67.843 88.4173L65.9969 65.1382L64.0031 65.2963L65.8493 88.5754L67.843 88.4173ZM66 65.2172V37.5037H64V65.2172H66ZM66 37.5037C66 37.5849 65.9676 37.7281 65.8418 37.8518C65.7175 37.9739 65.5806 38 65.5126 38V36C65.137 36 64.7437 36.1268 64.4401 36.4252C64.1348 36.7251 64 37.1202 64 37.5037H66ZM65.5126 38H80.4874V36H65.5126V38ZM80.4874 38C80.4194 38 80.2825 37.9739 80.1582 37.8518C80.0324 37.7281 80 37.5849 80 37.5037H82C82 37.1202 81.8652 36.7251 81.5599 36.4252C81.2563 36.1268 80.863 36 80.4874 36V38ZM80 37.5037V65.2172H82V37.5037H80ZM80.0035 65.1338L78.0546 88.4129L80.0476 88.5797L81.9965 65.3007L80.0035 65.1338ZM78.0511 88.4963C78.0511 88.4151 78.0835 88.2719 78.2093 88.1482C78.3336 88.0261 78.4705 88 78.5385 88V90C78.9141 90 79.3074 89.8732 79.611 89.5748C79.9163 89.2749 80.0511 88.8798 80.0511 88.4963H78.0511ZM78.5385 88H67.3588V90H78.5385V88ZM67.3588 88C67.4267 88 67.5637 88.0261 67.6879 88.1482C67.8138 88.2719 67.8462 88.4151 67.8462 88.4963H65.8462C65.8462 88.8798 65.981 89.2749 66.2862 89.5748C66.5899 89.8732 66.9832 90 67.3588 90V88Z" fill="#1C8D61"/>
</g>
</g>
</svg>
