<?xml version="1.0" encoding="UTF-8"?>
<svg width="78px" height="80px" viewBox="0 0 78 80" version="1.1" xmlns="http://www.w3.org/2000/svg" xmlns:xlink="http://www.w3.org/1999/xlink">
    <!-- Generator: Sketch 57.1 (83088) - https://sketch.com -->
    <title>Group 39</title>
    <desc>Created with Sketch.</desc>
    <defs>
        <polygon id="path-1" points="0 0.127530041 6.70789925 0.127530041 6.70789925 5.99645504 0 5.99645504"></polygon>
        <polygon id="path-3" points="0.185536324 0.0204600793 6.96818182 0.0204600793 6.96818182 5.82545911 0.185536324 5.82545911"></polygon>
    </defs>
    <g id="TodoFlor" stroke="none" stroke-width="1" fill="none" fill-rule="evenodd">
        <g id="HOME" transform="translate(-1086.000000, -1355.000000)">
            <g id="quienes-somos" transform="translate(0.000000, 1280.000000)">
                <g id="Group-39" transform="translate(1086.000000, 75.000000)">
                    <g id="Group-3" transform="translate(0.000000, 19.000000)">
                        <mask id="mask-2" fill="white">
                            <use xlink:href="#path-1"></use>
                        </mask>
                        <g id="Clip-2"></g>
                        <path d="M6.03810455,1.68597 C6.85296818,2.63637 6.92105909,3.64437 6.26019545,4.70487 C5.79787727,5.44737 5.15324091,5.87487 4.32151364,5.97087 C3.49042273,6.06687 2.66060455,5.89257 1.86196818,5.45037 C1.06333182,5.00817 0.509377273,4.41597 0.193104545,3.68457 C-0.12285,2.95317 -0.0518954545,2.20767 0.410740909,1.46547 C1.07160455,0.40467 2.03824091,-0.03003 3.31574091,0.17817 L3.19324091,0.90927 C2.23201364,0.77637 1.52565,1.08417 1.06333182,1.82667 C0.726377273,2.36757 0.675468182,2.91027 0.936059091,3.43947 C1.18519545,3.96267 1.63892273,4.39947 2.29151364,4.76097 C2.94378636,5.12247 3.56996818,5.28357 4.18692273,5.24007 C4.79274091,5.19057 5.27096818,4.88457 5.60792273,4.34367 C6.07055909,3.60117 6.01169545,2.86977 5.42051364,2.14287 L6.03810455,1.68597 Z" id="Fill-1" fill="#000000" mask="url(#mask-2)"></path>
                    </g>
                    <path d="M5.91786545,17.5350914 C6.48629735,17.9770896 7.11089574,18.2201298 7.80181118,18.2721468 C8.50220049,18.3153475 9.09736222,18.0990505 9.58797308,17.6232559 C10.0782456,17.1474613 10.2599408,16.6096577 10.1242615,16.0186615 C9.99771775,15.4191427 9.65056826,14.9069068 9.08213636,14.4649086 C8.51336611,14.0229104 7.88910608,13.7798702 7.18871677,13.7366696 C6.49780133,13.6843587 5.9026396,13.9009495 5.41202873,14.3767441 C4.92175622,14.8525387 4.74006102,15.3903423 4.86660479,15.990155 C5.00228407,16.5808573 5.34943355,17.0930932 5.91786545,17.5350914 M5.31661338,18.1184467 C4.60336669,17.5641857 4.17636606,16.8765024 4.03662655,16.0724419 C3.89722539,15.2686752 4.15572656,14.5480772 4.81246842,13.9106476 C5.46954863,13.2732181 6.26569164,12.9705199 7.20089746,13.0022591 C8.13610327,13.0339983 8.97014175,13.3267046 9.68338844,13.8812594 C10.3966351,14.4358143 10.8236358,15.1232038 10.9633753,15.9272643 C11.1027764,16.7313248 10.8442753,17.4519228 10.187195,18.0893524 C9.53045319,18.7267819 8.73431018,19.0294801 7.79910436,18.9977409 C6.86356019,18.9657078 6.02986007,18.6730016 5.31661338,18.1184467" id="Fill-4" fill="#000000"></path>
                    <path d="M17,12.8369838 L16.3492442,13.3398427 L13.729992,9.6263458 C13.1330151,8.78047707 12.4739857,8.62762126 11.7494033,9.18742651 C11.2561655,9.56873348 11.0095465,10.115551 11.017502,10.8392017 C11.0251392,11.5631854 11.3016706,12.3001568 11.8439141,13.0690981 L13.5568815,15.497141 L12.9058075,16 L9,10.46289 L9.65107399,9.96003102 L10.4647574,11.1136095 C10.3050119,10.0825821 10.6493238,9.05288676 11.4050915,8.46910413 C12.4128878,7.69050527 13.5050119,7.88232432 14.3186953,9.03556976 L17,12.8369838 Z" id="Fill-6" fill="#000000"></path>
                    <path d="M19.0655745,8.46187318 C19.3498079,9.13875078 19.7626593,9.63279553 20.3089821,9.95621827 C20.8662252,10.2743606 21.4447025,10.2842613 22.0444138,9.98625039 C22.6438218,9.6879094 23.0157217,9.20541547 23.1482831,8.54437898 C23.2920682,7.87773209 23.218659,7.21504549 22.9344255,6.53816788 C22.6498887,5.86129028 22.2373407,5.36724553 21.6797942,5.04910316 C21.1337748,4.72568041 20.5552975,4.71577972 19.9555862,5.01379068 C19.3561782,5.31213166 18.9842783,5.79429557 18.8404931,6.46127248 C18.7079318,7.12197894 18.781341,7.78499557 19.0655745,8.46187318 M18.3302683,8.82753889 C17.9735356,7.97838917 17.9071033,7.10382767 18.124601,6.22200565 C18.3420987,5.34018363 18.8526269,4.69960858 19.6555788,4.29995047 C20.4588341,3.90062239 21.2381251,3.89996234 21.993452,4.29830036 C22.7487789,4.69630835 23.312999,5.32335245 23.6697317,6.17250217 C24.0264644,7.02165189 24.0928967,7.89621339 23.875399,8.77803541 C23.6579013,9.65985743 23.1473731,10.3004325 22.3444212,10.6997606 C21.5411659,11.0994187 20.7618749,11.1000787 20.006548,10.7017407 C19.2512211,10.3037327 18.687001,9.67668861 18.3302683,8.82753889" id="Fill-8" fill="#000000"></path>
                    <path d="M31,5.48590592 C30.8198165,6.80952973 30.0727854,7.61498565 28.7748148,7.91276821 C27.8664302,8.12134718 27.0788172,7.95737 26.4223648,7.4047669 C25.7659125,6.8521638 25.3237324,6.09885263 25.1143299,5.16779019 C24.9049275,4.23705571 24.9847926,3.37781528 25.3406145,2.59302049 C25.6964363,1.8082257 26.333734,1.30350394 27.2421187,1.09492496 C28.5400892,0.797470357 29.5582073,1.19790263 30.286733,2.31294747 L29.6247615,2.76814812 C29.0579139,1.9469504 28.3215964,1.64720011 27.4132118,1.85545113 C26.7512403,2.007294 26.2879577,2.37558675 26.0525828,2.96721642 C25.8142861,3.54572792 25.7870151,4.21409891 25.9577836,4.97429712 C26.1288767,5.73482329 26.4392469,6.32546909 26.9044775,6.75640112 C27.3671108,7.17421498 27.9420748,7.30408491 28.6040463,7.15256999 C29.5124309,6.94399102 30.0481116,6.35236135 30.2084912,5.36423486 L31,5.48590592 Z" id="Fill-10" fill="#000000"></path>
                    <path d="M32.9084607,2.78340719 L37.1134283,2.65537588 C36.9151335,1.46271494 36.137739,0.745739582 34.9381049,0.782179264 C33.8466614,0.815336092 33.1024805,1.63276679 32.9084607,2.78340719 L32.9084607,2.78340719 Z M38,3.40944749 L32.8785356,3.56538306 C32.9278627,5.17989076 33.7703689,6.25863666 35.1045015,6.21792926 C36.1288601,6.18674215 36.6823098,5.75242054 37.1492726,4.70125062 L37.9016747,5.04201089 C37.2551614,6.40833481 36.4221917,6.95886946 35.1281785,6.99826371 C34.2251644,7.02583968 33.4875604,6.72513024 32.9150376,6.08267567 C32.342186,5.4402211 32.0330698,4.60145185 32.002487,3.59197418 C31.9715754,2.58315308 32.2290626,1.74011612 32.761466,1.06417644 C33.2938695,0.387908473 34.0114138,0.0294207938 34.9144279,0.00184481845 C35.7904765,-0.0247463006 36.5132824,0.235912324 37.083832,0.797608679 C37.6540529,1.35930503 37.9598807,2.10418465 37.9884904,3.03257582 L38,3.40944749 Z" id="Fill-12" fill="#000000"></path>
                    <path d="M45.1756373,8 L44.3528672,7.852765 L45.1112865,3.10860318 C45.2843112,2.02795382 44.9205326,1.39977429 44.004848,1.23587117 C43.3810399,1.12440316 42.8163294,1.32650404 42.3084183,1.85641115 C41.8005072,2.38631826 41.4757986,3.13707787 41.3185333,4.11945481 L40.82277,7.2214602 L40,7.07422519 L41.1310626,0 L41.9538326,0.147235003 L41.7180988,1.62097404 C42.3353405,0.749717857 43.3120927,0.274676621 44.2678323,0.445524785 C45.5417141,0.673322337 46.187848,1.66993663 45.9521142,3.14367567 L45.1756373,8 Z" id="Fill-14" fill="#000000"></path>
                    <path d="M48.0129608,5.65299609 C47.7607479,6.34376935 47.7199308,7.0085316 47.8850267,7.65946522 C48.0620023,8.31533764 48.4582934,8.77464588 49.0742047,9.0370607 C49.690116,9.29980477 50.2697794,9.2566726 50.8016197,8.90272539 C51.345035,8.55404623 51.7349294,8.03810643 51.9868378,7.34733317 C52.2390507,6.65623065 52.2801724,5.99179765 52.1031969,5.33592523 C51.9377964,4.68466236 51.5415053,4.22568337 50.9255939,3.9629393 C50.3099872,3.70019523 49.7300193,3.74365665 49.1866039,4.09233581 C48.6547636,4.44595377 48.2651738,4.96222283 48.0129608,5.65299609 M47.257845,5.33098643 C47.574025,4.46439195 48.1089114,3.80720252 48.8469694,3.36699097 C49.5850273,2.92677941 50.3666437,2.88265948 51.1915141,3.23430192 C52.0163845,3.58627361 52.5594952,4.19506282 52.8211509,5.06132805 C53.082502,5.92726402 53.0584382,6.80241908 52.7422582,7.66934282 C52.4260782,8.53560805 51.8905826,9.19279748 51.1528293,9.63300903 C50.4147713,10.0732206 49.6334595,10.1173405 48.8082845,9.76569808 C47.9834142,9.41405564 47.4403034,8.80493718 47.1789523,7.93900121 C46.9176012,7.07273598 46.9413604,6.19758092 47.257845,5.33098643" id="Fill-16" fill="#000000"></path>
                    <path d="M59,7.99046286 L58.2110847,8.09783471 C58.1575081,7.51200915 57.9117255,7.10552999 57.4811036,6.868073 C56.9691123,6.58607439 56.3941685,6.71143988 56.0666816,7.17278489 C55.7971244,7.55212611 56.0311871,8.06627211 56.4397086,8.56271945 C57.0347436,9.27568036 57.8069163,10.1721174 57.1881066,11.0434813 C56.4819002,12.0381458 55.3393794,12.2788475 54.2219726,11.6629343 C53.069741,11.0278474 52.8229538,10.0075198 53.108584,9.08070015 L53.9597821,9.13615595 C53.7484894,10.0039801 53.8529638,10.6322825 54.6445579,11.0682594 C55.331008,11.4467157 55.9511571,11.3033565 56.3590089,10.7290351 C56.6573635,10.308692 56.4450663,9.76386833 56.0218112,9.28806942 C55.427111,8.57510851 54.6298244,7.73648712 55.3142653,6.77279523 C55.8965759,5.95246246 56.9955658,5.77311606 57.9385138,6.29286664 C58.601859,6.65834391 58.9480977,7.21998131 59,7.99046286" id="Fill-18" fill="#000000"></path>
                    <path d="M65.3925813,12 L65.9658481,12.5849563 L62.5228912,15.4817493 C61.7385092,16.1416521 61.6559427,16.7965792 62.2939873,17.4480855 C62.7286362,17.8915452 63.2941834,18.0703596 64.0188221,17.9941691 C64.7434608,17.9182896 65.462058,17.5895821 66.1752851,16.9896987 L68.4263976,15.0958212 L69,15.6807775 L63.8657719,20 L63.2925052,19.4147328 L64.3618423,18.5150632 C63.3455357,18.7675802 62.2765342,18.5303013 61.6106318,17.8504956 C60.7228739,16.9446064 60.798392,15.8648785 61.8680648,14.9652089 L65.3925813,12 Z" id="Fill-20" fill="#000000"></path>
                    <path d="M67.7376571,26 L67.302257,25.2830669 L71.262832,22.9419403 C72.1649463,22.4084316 72.383146,21.7454082 71.8987759,20.9476106 C71.5686447,20.4042405 71.0489629,20.0988618 70.3274047,20.0380491 C69.6061797,19.977565 68.844646,20.1922176 68.0244815,20.6770761 L65.4350669,22.2079139 L65,21.4909808 L70.9050511,18 L71.340118,18.7166043 L70.1102044,19.4440564 C71.1525662,19.3776554 72.1429598,19.8289847 72.6486501,20.6612976 C73.3225708,21.7713769 73.021755,22.8761967 71.7915083,23.60332 L67.7376571,26 Z" id="Fill-22" fill="#000000"></path>
                    <path d="M76.1463115,32.113692 C75.8249747,30.7059093 74.5770898,30.1901298 73.0446846,30.5768795 C72.2851025,30.7683869 71.7102487,31.1140508 71.3075281,31.6165878 C70.9077141,32.1323673 70.7866072,32.7357513 70.9442076,33.4260605 C71.1018079,34.1167093 71.4702957,34.5964963 72.0490249,34.8654215 C72.6277541,35.1346862 73.289159,35.1683019 74.049064,34.9767945 C75.5811463,34.5900448 76.4676484,33.5218142 76.1463115,32.113692 L76.1463115,32.113692 Z M67.1979693,32.1663225 L67,31.3001253 L76.1166,29 L76.3145693,29.8665367 L75.4645608,30.0807941 C76.06299,30.3164432 76.7046948,31.0994501 76.9023412,31.9659868 C77.1219482,32.9272586 76.9698381,33.7530491 76.4595746,34.4403024 C75.9518947,35.1411377 75.2155651,35.613115 74.2496169,35.8565738 C73.2839917,36.1003722 72.4110536,36.0341595 71.6566388,35.6518239 C70.9051304,35.2830705 70.4261933,34.6165299 70.2065862,33.6552581 C70.0367137,32.9106205 70.2450174,31.9130167 70.7388104,31.2729612 L67.1979693,32.1663225 Z" id="Fill-24" fill="#000000"></path>
                    <g id="Group-28" transform="translate(71.000000, 38.000000)">
                        <mask id="mask-4" fill="white">
                            <use xlink:href="#path-3"></use>
                        </mask>
                        <g id="Clip-27"></g>
                        <path d="M3.53382273,0.82041 C2.81664091,0.83331 2.20764091,1.02921 1.69345909,1.40751 C1.17959545,1.79811 0.929186364,2.31951 0.94255,2.97081 C0.956231818,3.62271 1.22732273,4.13421 1.75677727,4.49361 C2.28623182,4.86531 2.90286818,5.03871 3.62005,5.02551 C4.33723182,5.01231 4.94655,4.81671 5.46041364,4.42611 C5.97427727,4.04781 6.22468636,3.52671 6.21132273,2.87481 C6.19795909,2.22321 5.92655,1.71141 5.39677727,1.33971 C4.86764091,0.98061 4.25100455,0.80751 3.53382273,0.82041 M3.51727727,0.02121 C4.41709545,0.00471 5.21827727,0.26061 5.90714091,0.77691 C6.59632273,1.29351 6.94950455,1.98801 6.96764091,2.86101 C6.98545909,3.73401 6.66091364,4.44111 5.99336818,4.98231 C5.32614091,5.52321 4.53641364,5.80821 3.63659545,5.82471 C2.73677727,5.84121 1.93591364,5.58501 1.24673182,5.06871 C0.55755,4.55241 0.204368182,3.85791 0.186231818,2.98491 C0.168413636,2.11191 0.492959091,1.40481 1.16050455,0.86391 C1.82773182,0.32271 2.61777727,0.03771 3.51727727,0.02121" id="Fill-26" fill="#000000" mask="url(#mask-4)"></path>
                    </g>
                    <path d="M71.4066559,51.4084758 C70.2624757,50.7190193 69.8206149,49.7089081 70.0653277,48.3882959 C70.2368891,47.4639984 70.7020404,46.7987793 71.4719345,46.4086877 C72.2418287,46.0182687 73.1104609,45.9055974 74.0496203,46.0791898 C74.9884516,46.2527821 75.7462085,46.6661285 76.3251873,47.3054725 C76.9041661,47.9451441 77.1131233,48.7348256 76.942218,49.6591232 C76.6971771,50.9794078 75.9223624,51.7648315 74.6069489,52 L74.4531012,51.2067156 C75.4339208,51.0056105 76.0037147,50.441599 76.1749481,49.517629 C76.2999288,48.843894 76.1464092,48.2694015 75.6966755,47.8177338 C75.2603912,47.3683588 74.657466,47.0791474 73.8905241,46.9376532 C73.1232542,46.7958315 72.4566905,46.8502019 71.8750875,47.1112456 C71.3062777,47.3749095 70.9572503,47.8567102 70.8325976,48.5301176 C70.6610362,49.4544152 70.9907097,50.1844857 71.8347394,50.7229497 L71.4066559,51.4084758 Z" id="Fill-29" fill="#000000"></path>
                    <path d="M72.3637169,54.0202232 C71.6749391,53.7635485 71.0105369,53.7175724 70.3579932,53.8783366 C69.700179,54.0503665 69.2376998,54.4431428 68.9698966,55.0569699 C68.7020935,55.6704925 68.740304,56.2502181 69.090128,56.784272 C69.4343523,57.3298961 69.9472299,57.7229768 70.6360078,57.9796516 C71.325115,58.2366308 71.9895172,58.2826069 72.6470019,58.1102725 C73.299875,57.9498127 73.7623543,57.556732 74.0301574,56.9432094 C74.2979606,56.3296868 74.2594207,55.7499612 73.914867,55.2043371 C73.5653724,54.6702832 73.0524948,54.2772024 72.3637169,54.0202232 M72.6921299,53.2675543 C73.5564786,53.5896917 74.2093517,54.1292262 74.6435024,54.8700205 C75.0776532,55.6108149 75.1152049,56.3921047 74.756487,57.2141946 C74.3980986,58.0359799 73.7844242,58.574601 72.9157933,58.8294489 C72.0474918,59.0846012 71.1719435,59.0544579 70.3079242,58.7323205 C69.4435755,58.4101831 68.7907024,57.8706485 68.3565516,57.1301587 C67.9224009,56.3893644 67.8848492,55.6080746 68.2432376,54.7859847 C68.6019555,53.9638948 69.2156299,53.4255782 70.0842608,53.1704259 C70.9525623,52.915578 71.8277812,52.9454168 72.6921299,53.2675543" id="Fill-31" fill="#000000"></path>
                    <path d="M59,68.9408644 L59.5563782,68.2944549 L62.9250669,71.4663075 C63.712697,72.2074553 64.2877193,72.3148482 64.8889087,71.6167944 C65.2660422,71.1790144 65.3795421,70.6068223 65.2114184,69.9009022 C65.0429676,69.195324 64.6105561,68.5239474 63.9128754,67.8669354 L61.7102587,65.7932949 L62.2663098,65.1472275 L65.6353256,68.318738 C66.4226286,69.0602278 66.997978,69.1676207 67.5991674,68.4692249 C67.9759738,68.0314449 68.0898008,67.4592529 67.92135,66.7536747 C67.7532263,66.0480965 67.3204877,65.3767199 66.622807,64.719708 L64.4201903,62.6460675 L64.9765685,62 L70,66.7290496 L69.4436218,67.375117 L68.3969373,66.3901121 C68.7976212,67.3710128 68.7246803,68.3779067 68.0875112,69.1176865 C67.4055308,69.9097946 66.6237883,70.0421546 65.7416295,69.4945876 C66.0755873,70.4693321 65.9784419,71.5668601 65.3775795,72.2652559 C64.5068689,73.275912 63.5648528,73.2382903 62.4484984,72.1872764 L59,68.9408644 Z" id="Fill-33" fill="#000000"></path>
                    <path d="M60.7232023,76.3529289 L61,78.3323965 L59.9783766,79 L60.1848405,76.7043156 L60.7232023,76.3529289 Z M56.7362134,71.0858645 C56.3077279,71.3659778 56.0351438,71.7752545 55.918785,72.3143171 C55.7910821,72.8605381 55.9589758,73.4606031 56.4224661,74.1151346 L56.5644302,74.3155713 L57.4654813,73.727022 C58.6964856,72.9230967 59.0313006,72.1026759 58.5230819,71.3852745 C58.0673705,70.7413251 57.4064916,70.6482652 56.7362134,71.0858645 L56.7362134,71.0858645 Z M54,72.1011197 L54.5163217,71.7637387 L55.2640645,72.4792727 C55.2008612,71.6411113 55.5664676,70.9545224 56.3686623,70.4307105 C57.3799139,69.7705767 58.4602028,69.8213084 59.2374404,70.9187302 C60.0519517,72.0690623 59.5145622,73.2841317 57.9208686,74.3245971 L56.9977775,74.9274633 L57.1621058,75.1596461 C57.7899245,76.0460492 58.5574385,76.1313282 59.3486132,75.6146747 C60.0192156,75.1770754 60.226976,74.5626935 59.9650877,73.7615693 L60.7290364,73.4786548 C61.2139186,74.4584291 60.793212,75.5664329 59.7822846,76.2265667 C59.2215585,76.5925815 58.6297171,76.7323269 58.0278279,76.6314861 C57.4223735,76.5483858 56.9070241,76.2060251 56.4960411,75.625568 L54,72.1011197 Z" id="Fill-35" fill="#000000"></path>
                    <path d="M51.3315809,79.6146601 L51.6944655,78.8807032 C52.3315213,79.2061912 52.8988478,79.255641 53.4026512,79.0426005 C54.0017392,78.7885775 54.2174985,78.2243079 53.9378511,77.6556352 C53.7078539,77.1882329 53.0361159,77.0605441 52.2782203,77.0917042 C51.1844557,77.1428475 49.7949804,77.2278605 49.2663519,76.1541902 C48.663248,74.9291222 49.101338,73.8124373 50.4083064,73.2586673 C51.7561631,72.6879624 52.958355,73.1248819 53.7436312,73.9523193 L53.1752095,74.6358104 C52.4059966,73.9082887 51.6944655,73.5993968 50.7686354,73.9912695 C49.9654704,74.3316602 49.7413144,74.9457184 50.0892308,75.653257 C50.3440532,76.1711251 51.0344099,76.3364093 51.779893,76.2801856 C52.8736576,76.2290423 54.2185938,76.0864508 54.8030788,77.2739234 C55.3003109,78.2842573 54.8253483,79.325074 53.7224569,79.7921375 C52.9463075,80.1210125 52.1584757,80.0580149 51.3315809,79.6146601" id="Fill-37" fill="#000000"></path>
                </g>
            </g>
        </g>
    </g>
</svg>