<?xml version="1.0" encoding="UTF-8"?>
<svg width="147px" height="146px" viewBox="0 0 147 146" version="1.1" xmlns="http://www.w3.org/2000/svg" xmlns:xlink="http://www.w3.org/1999/xlink">
    <!-- Generator: Sketch 57.1 (83088) - https://sketch.com -->
    <title>Group 17</title>
    <desc>Created with Sketch.</desc>
    <g id="TodoFlor" stroke="none" stroke-width="1" fill="none" fill-rule="evenodd" stroke-linecap="round" stroke-linejoin="round">
        <g id="HOME" transform="translate(-157.000000, -2079.000000)" stroke="#1C8D61" stroke-width="2">
            <g id="faqs" transform="translate(105.000000, 1971.000000)">
                <g id="Group-17" transform="translate(53.000000, 109.000000)">
                    <polyline id="Stroke-1" points="33 40 46.1666667 40 59.3333333 92 101.466959 92 112 60.8001444 51.4434233 60.8001444"></polyline>
                    <g id="Group-16">
                        <path d="M56.4779394,102.924873 C56.4779394,105.816509 58.8426111,108.163418 61.7528636,108.163418 C64.6689747,108.163418 67.0277879,105.816509 67.0277879,102.924873 C67.0277879,100.032509 64.6689747,97.6863273 61.7528636,97.6863273 C58.8426111,97.6863273 56.4779394,100.032509 56.4779394,102.924873 Z" id="Stroke-2"></path>
                        <path d="M90.765899,102.924873 C90.765899,105.816509 93.1305707,108.163418 96.0408232,108.163418 C98.9569343,108.163418 101.315747,105.816509 101.315747,102.924873 C101.315747,100.032509 98.9569343,97.6863273 96.0408232,97.6863273 C93.1305707,97.6863273 90.765899,100.032509 90.765899,102.924873 Z" id="Stroke-4"></path>
                        <polyline id="Stroke-6" points="53.6342551 61.22 67.0277146 47.9189091 80.4014015 61.2003636"></polyline>
                        <polyline id="Stroke-8" points="90.765899 61.0152727 90.765899 47.9185455 106.591404 47.9185455 106.591404 61.0152727"></polyline>
                        <polyline id="Stroke-10" points="76.3778712 60.5125818 86.2635025 36.2274909 96.04075 40.1554909 92.8829722 47.9184"></polyline>
                        <path d="M90.6267576,53.4616 L87.5517323,61.0150545" id="Stroke-12"></path>
                        <path d="M144.300631,72.1954909 C144.300631,111.684218 112.06596,143.696582 72.3030051,143.696582 C32.5400505,143.696582 0.305378788,111.684218 0.305378788,72.1954909 C0.305378788,32.7067636 32.5400505,0.6944 72.3030051,0.6944 C112.06596,0.6944 144.300631,32.7067636 144.300631,72.1954909 Z" id="Stroke-14"></path>
                    </g>
                </g>
            </g>
        </g>
    </g>
</svg>