<?xml version="1.0" encoding="UTF-8"?>
<svg width="146px" height="146px" viewBox="0 0 146 146" version="1.1" xmlns="http://www.w3.org/2000/svg" xmlns:xlink="http://www.w3.org/1999/xlink">
    <!-- Generator: Sketch 57.1 (83088) - https://sketch.com -->
    <title>Group 13</title>
    <desc>Created with Sketch.</desc>
    <g id="TodoFlor" stroke="none" stroke-width="1" fill="none" fill-rule="evenodd" stroke-linecap="round" stroke-linejoin="round">
        <g id="HOME" transform="translate(-485.000000, -2079.000000)" stroke="#1C8D61" stroke-width="2">
            <g id="faqs" transform="translate(105.000000, 1971.000000)">
                <g id="Group-13" transform="translate(381.000000, 109.000000)">
                    <path d="M94,82.6510002 L71.2625068,60.0866996 C68.455885,57.3044335 63.9064945,57.3044335 61.1027833,60.0866996 C58.2990722,62.8711319 58.2990722,67.3821146 61.1027833,70.166547 L73.5874113,82.5585709 C73.5874113,82.5585709 69.8137166,94.0790154 82.1768237,104" id="Stroke-1"></path>
                    <path d="M88,55 C88,55 97.7828586,65.0034546 100.337248,67.6357507 C103.816259,71.219611 105,75.718577 105,84.064633 C105,96.5720502 104.912211,116 104.912211,116" id="Stroke-3"></path>
                    <path d="M61,89 C61,93.5223531 61.5214306,99.516995 65.8925563,106.261344 C70.2606679,113.006446 69.9969385,114.930066 69.9969385,116" id="Stroke-5"></path>
                    <path d="M72.1284246,89 L48.9284138,89 C47.3093636,89 46,87.699085 46,86.0953771 L46,30.9046229 C46,29.300915 47.3093636,28 48.9284138,28 L84.0715862,28 C85.6906364,28 87,29.300915 87,30.9046229 L87,75.907673" id="Stroke-7"></path>
                    <path d="M72.5,29 L72.5,62" id="Stroke-9"></path>
                    <path d="M144,72 C144,111.764266 111.764266,144 72,144 C32.2357345,144 0,111.764266 0,72 C0,32.2357345 32.2357345,0 72,0 C111.764266,0 144,32.2357345 144,72 Z" id="Stroke-11"></path>
                </g>
            </g>
        </g>
    </g>
</svg>