<?xml version="1.0" encoding="UTF-8"?>
<svg width="147px" height="146px" viewBox="0 0 147 146" version="1.1" xmlns="http://www.w3.org/2000/svg" xmlns:xlink="http://www.w3.org/1999/xlink">
    <!-- Generator: Sketch 57.1 (83088) - https://sketch.com -->
    <title>Group 17</title>
    <desc>Created with Sketch.</desc>
    <g id="TodoFlor" stroke="none" stroke-width="1" fill="none" fill-rule="evenodd" stroke-linecap="round" stroke-linejoin="round">
        <g id="HOME" transform="translate(-812.000000, -2079.000000)" stroke="#1C8D61" stroke-width="2">
            <g id="faqs" transform="translate(105.000000, 1971.000000)">
                <g id="Group-17" transform="translate(708.000000, 109.000000)">
                    <polygon id="Stroke-1" points="77 106 93 106 93 77 77 77"></polygon>
                    <polyline id="Stroke-2" points="104 69 104 106 41 106 41 69"></polyline>
                    <polygon id="Stroke-3" points="52 93 70 93 70 78 52 78"></polygon>
                    <g id="Group-16">
                        <path d="M99.3739924,38.2825455 L45.2062399,38.2825455 L32.9010126,59.8069091 C32.9010126,65.2076364 37.3103308,69.5865455 42.7492955,69.5865455 C48.1875278,69.5865455 52.6049015,65.2076364 52.6049015,59.8069091 C52.6049015,65.2076364 57.0222753,69.5865455 62.4605076,69.5865455 C67.9009369,69.5865455 72.3109874,65.2076364 72.3109874,59.8069091 C72.3109874,65.2076364 76.7203056,69.5865455 82.1585379,69.5865455 C87.5996995,69.5865455 92.0068207,65.2076364 92.0068207,59.8069091 C92.0068207,65.2076364 96.4190682,69.5865455 101.857301,69.5865455 C107.295533,69.5865455 111.704851,65.2076364 111.704851,59.8069091 L99.3739924,38.2825455 Z" id="Stroke-4"></path>
                        <path d="M32.9010859,59.1520727 L111.704924,59.1520727" id="Stroke-6"></path>
                        <path d="M72.2953889,38.2825455 L72.2953889,59.8069091" id="Stroke-8"></path>
                        <path d="M52.6046086,59.8068364 L59.1559722,38.2824727" id="Stroke-10"></path>
                        <path d="M91.9759167,59.8068364 L85.42675,38.2824727" id="Stroke-12"></path>
                        <path d="M144.300631,72.1954909 C144.300631,111.684218 112.06596,143.696582 72.3030051,143.696582 C32.5400505,143.696582 0.305378788,111.684218 0.305378788,72.1954909 C0.305378788,32.7067636 32.5400505,0.6944 72.3030051,0.6944 C112.06596,0.6944 144.300631,32.7067636 144.300631,72.1954909 Z" id="Stroke-14"></path>
                    </g>
                </g>
            </g>
        </g>
    </g>
</svg>