<?xml version="1.0" encoding="UTF-8"?>
<svg width="22px" height="28px" viewBox="0 0 22 28" version="1.1" xmlns="http://www.w3.org/2000/svg" xmlns:xlink="http://www.w3.org/1999/xlink">
    <!-- Generator: Sketch 61 (89581) - https://sketch.com -->
    <title>Group 13</title>
    <desc>Created with Sketch.</desc>
    <g id="TodoFlor" stroke="none" stroke-width="1" fill="none" fill-rule="evenodd">
        <g id="07CARRITO" transform="translate(-1379.000000, -351.000000)" stroke="#202020">
            <g id="Group-13" transform="translate(1379.000000, 352.000000)">
                <line x1="0" y1="3" x2="22" y2="3" id="Stroke-1"></line>
                <path d="M7,3 L7,1.464 C7,0.6555 7.6992,0 8.5616,0 L13.4384,0 C14.3008,0 15,0.6555 15,1.464 L15,3" id="Stroke-3"></path>
                <path d="M20,3 L18.7857735,23.8704512 C18.6974435,25.0482488 17.8796653,26 16.761648,26 L6.23793726,26 C5.12033468,26 4.28679807,25.0595947 4.21464117,23.8704512 L3,3" id="Stroke-5"></path>
                <line x1="11.5" y1="7" x2="11.5" y2="23" id="Stroke-7"></line>
                <line x1="7" y1="7" x2="8" y2="23" id="Stroke-9"></line>
                <line x1="15" y1="7" x2="14" y2="23" id="Stroke-11"></line>
            </g>
        </g>
    </g>
</svg>