<?xml version="1.0" encoding="UTF-8"?>
<svg width="29px" height="28px" viewBox="0 0 29 28" version="1.1" xmlns="http://www.w3.org/2000/svg" xmlns:xlink="http://www.w3.org/1999/xlink">
    <!-- Generator: Sketch 57.1 (83088) - https://sketch.com -->
    <title>Group 8</title>
    <desc>Created with Sketch.</desc>
    <defs>
        <polygon id="path-1" points="0 0.000247058824 28.9998294 0.000247058824 28.9998294 28 0 28"></polygon>
    </defs>
    <g id="TodoFlor" stroke="none" stroke-width="1" fill="none" fill-rule="evenodd">
        <g id="HOME" transform="translate(-1118.000000, -1766.000000)">
            <g id="quienes-somos" transform="translate(0.000000, 1280.000000)">
                <g id="Group-8" transform="translate(1118.000000, 486.000000)">
                    <g id="Group-3">
                        <mask id="mask-2" fill="white">
                            <use xlink:href="#path-1"></use>
                        </mask>
                        <g id="Clip-2"></g>
                        <path d="M26.4043294,20.2755412 C26.4043294,23.1455412 24.0229176,25.4934235 21.1126824,25.4934235 L7.88782941,25.4934235 C4.97674118,25.4934235 2.59618235,23.1455412 2.59618235,20.2755412 L2.59618235,7.72412941 C2.59618235,4.85412941 4.97674118,2.50624706 7.88782941,2.50624706 L21.1126824,2.50624706 C24.0229176,2.50624706 26.4043294,4.85412941 26.4043294,7.72412941 L26.4043294,20.2755412 Z M21.3557706,0.000247058824 L7.64388824,0.000247058824 C3.43974118,0.000247058824 -0.000170588235,3.39154118 -0.000170588235,7.53718824 L-0.000170588235,20.4624824 C-0.000170588235,24.6081294 3.43974118,28.0002471 7.64388824,28.0002471 L21.3557706,28.0002471 C25.5599176,28.0002471 28.9998294,24.6081294 28.9998294,20.4624824 L28.9998294,7.53718824 C28.9998294,3.39154118 25.5599176,0.000247058824 21.3557706,0.000247058824 L21.3557706,0.000247058824 Z" id="Fill-1" fill="#1C8D61" mask="url(#mask-2)"></path>
                    </g>
                    <path d="M14.5,18.5160644 C11.827445,18.5160644 9.66114881,16.493958 9.66114881,14.0004009 C9.66114881,11.506042 11.827445,9.48393563 14.5,9.48393563 C17.172555,9.48393563 19.3388512,11.506042 19.3388512,13.9995991 C19.3388512,16.493958 17.172555,18.5160644 14.5,18.5160644 M14.5,7 C10.357803,7 7,10.1341848 7,13.9995991 C7,17.8658152 10.357803,21 14.5,21 C18.642197,21 22,17.8658152 22,14.0004009 C22,10.1341848 18.642197,7 14.5,7" id="Fill-4" fill="#1C8D61"></path>
                    <path d="M24,6.5 C24,7.32876712 23.3284974,8 22.5,8 C21.6715026,8 21,7.32876712 21,6.5 C21,5.67123288 21.6715026,5 22.5,5 C23.3284974,5 24,5.67123288 24,6.5" id="Fill-6" fill="#1C8D61"></path>
                </g>
            </g>
        </g>
    </g>
</svg>