<?xml version="1.0" encoding="UTF-8"?>
<svg width="23px" height="22px" viewBox="0 0 23 22" version="1.1" xmlns="http://www.w3.org/2000/svg" xmlns:xlink="http://www.w3.org/1999/xlink">
    <!-- Generator: Sketch 57.1 (83088) - https://sketch.com -->
    <title>Group 7</title>
    <desc>Created with Sketch.</desc>
    <g id="TodoFlor" stroke="none" stroke-width="1" fill="none" fill-rule="evenodd">
        <g id="HOME" transform="translate(-1380.000000, -19.000000)" stroke="#202020">
            <g id="header" transform="translate(40.000000, 16.000000)">
                <g id="Group-7" transform="translate(1341.000000, 3.500000)">
                    <path d="M10.2427995,2.25720047 C12.5857335,4.60013444 12.5857335,8.39951228 10.2427995,10.7424462 C7.89986556,13.0858513 4.10048772,13.0858513 1.75755375,10.7424462 C-0.585851251,8.39951228 -0.585851251,4.60013444 1.75755375,2.25720047 C4.10048772,-0.0857334917 7.89986556,-0.0857334917 10.2427995,2.25720047 Z" id="Stroke-1"></path>
                    <path d="M13,15.1730909 L18.6934763,20.1548827 C19.2193694,20.6150391 20.0796871,20.6150391 20.6055802,20.1548827 L20.6055802,20.1548827 C21.1314733,19.6947262 21.1314733,18.9419482 20.6055802,18.4817918 L14.9121039,13.5 L13,15.1730909 Z" id="Stroke-3"></path>
                    <path d="M10,10.5 L14,14.5" id="Stroke-5"></path>
                </g>
            </g>
        </g>
    </g>
</svg>