<?xml version="1.0" encoding="UTF-8"?>
<svg width="219px" height="236px" viewBox="0 0 219 236" version="1.1" xmlns="http://www.w3.org/2000/svg" xmlns:xlink="http://www.w3.org/1999/xlink">
    <!-- Generator: Sketch 57.1 (83088) - https://sketch.com -->
    <title>Group 89</title>
    <desc>Created with Sketch.</desc>
    <g id="TodoFlor" stroke="none" stroke-width="1" fill="none" fill-rule="evenodd">
        <g id="HOME" transform="translate(-611.000000, -194.000000)">
            <g id="herospace" transform="translate(-6.000000, 60.000000)">
                <g id="Group-89" transform="translate(618.000000, 135.000000)">
                    <path d="M158.37338,215 L158,214.285602 C175.255068,205.351922 189.799783,191.915459 200.062528,175.427983 C210.614606,158.475852 216.19225,138.918095 216.19225,118.868263 C216.19225,93.9636378 207.445338,69.6874453 191.562554,50.5128251 L192.186589,50 C208.187636,69.318389 217,93.7768865 217,118.868263 C217,139.067793 211.380704,158.772283 200.749042,175.85262 C190.409687,192.462374 175.756379,205.999623 158.37338,215" id="Fill-1" fill="#1C8D61"></path>
                    <path d="M158.37338,215 L158,214.285602 C175.255068,205.351922 189.799783,191.915459 200.062528,175.427983 C210.614606,158.475852 216.19225,138.918095 216.19225,118.868263 C216.19225,93.9636378 207.445338,69.6874453 191.562554,50.5128251 L192.186589,50 C208.187636,69.318389 217,93.7768865 217,118.868263 C217,139.067793 211.380704,158.772283 200.749042,175.85262 C190.409687,192.462374 175.756379,205.999623 158.37338,215 Z" id="Stroke-3" stroke="#1C8D61" stroke-width="0.567"></path>
                    <path d="M112.337467,146 C109.931412,146 108.473897,145.89011 108.409716,145.884947 L108.476883,145.086217 C108.764206,145.109818 137.444325,147.259678 153.12473,131.763718 C167.886446,117.176378 166.273703,91.1973573 166.01026,87.9780976 C162.750444,87.7170167 136.464439,86.1239809 121.702723,100.712058 C112.280748,110.023205 109.490351,123.824352 108.808984,133.763125 L108,133.708549 C108.691069,123.633335 111.529976,109.632321 121.129569,100.145646 C137.080879,84.3812293 166.136384,87.1801047 166.425947,87.2103428 L166.752824,87.2435311 L166.787154,87.5665633 C166.817752,87.8549323 169.649941,116.566452 153.697885,132.330868 C141.261624,144.620844 120.857917,146 112.337467,146" id="Fill-5" fill="#1C8D61"></path>
                    <path d="M112.337467,146 C109.931412,146 108.473897,145.89011 108.409716,145.884947 L108.476883,145.086217 C108.764206,145.109818 137.444325,147.259678 153.12473,131.763718 C167.886446,117.176378 166.273703,91.1973573 166.01026,87.9780976 C162.750444,87.7170167 136.464439,86.1239809 121.702723,100.712058 C112.280748,110.023205 109.490351,123.824352 108.808984,133.763125 L108,133.708549 C108.691069,123.633335 111.529976,109.632321 121.129569,100.145646 C137.080879,84.3812293 166.136384,87.1801047 166.425947,87.2103428 L166.752824,87.2435311 L166.787154,87.5665633 C166.817752,87.8549323 169.649941,116.566452 153.697885,132.330868 C141.261624,144.620844 120.857917,146 112.337467,146 Z" id="Stroke-7" stroke="#1C8D61" stroke-width="0.567"></path>
                    <polygon id="Fill-9" fill="#1C8D61" points="108.571789 146 108 145.431146 165.42895 87 166 87.5688541"></polygon>
                    <polygon id="Stroke-11" stroke="#1C8D61" stroke-width="0.567" points="108.571789 146 108 145.431146 165.42895 87 166 87.5688541"></polygon>
                    <path d="M51.5176783,87.9484383 L108.154441,145.039652 L108.190264,134.156523 C107.508891,124.15756 104.718473,110.231948 95.2979185,100.837314 C81.1532806,86.7323381 56.4283371,87.6179925 51.5176783,87.9484383 L51.5176783,87.9484383 Z M50.9504897,88.5259743 C50.6183859,93.4521475 49.7437214,118.079292 63.8756722,132.17236 C78.0023989,146.260962 102.666892,145.897025 107.638001,145.667797 L50.9504897,88.5259743 Z M108.958953,147 L108.399974,146.435861 C105.847626,146.602572 78.57108,147.971243 63.3025132,132.744686 C47.3503349,116.836399 50.1825462,87.8628499 50.2123983,87.5718492 L50.2467281,87.2466131 L50.5736078,87.2123777 C50.8654114,87.1818635 79.9181528,84.3567006 95.8710774,100.265732 C105.469251,109.837497 108.308179,123.9648 109,134.130475 L108.958953,147 Z" id="Fill-13" fill="#1C8D61"></path>
                    <path d="M51.5176783,87.9484383 L108.154441,145.039652 L108.190264,134.156523 C107.508891,124.15756 104.718473,110.231948 95.2979185,100.837314 C81.1532806,86.7323381 56.4283371,87.6179925 51.5176783,87.9484383 Z M50.9504897,88.5259743 C50.6183859,93.4521475 49.7437214,118.079292 63.8756722,132.17236 C78.0023989,146.260962 102.666892,145.897025 107.638001,145.667797 L50.9504897,88.5259743 Z M108.958953,147 L108.399974,146.435861 C105.847626,146.602572 78.57108,147.971243 63.3025132,132.744686 C47.3503349,116.836399 50.1825462,87.8628499 50.2123983,87.5718492 L50.2467281,87.2466131 L50.5736078,87.2123777 C50.8654114,87.1818635 79.9181528,84.3567006 95.8710774,100.265732 C105.469251,109.837497 108.308179,123.9648 109,134.130475 L108.958953,147 Z" id="Stroke-15" stroke="#1C8D61" stroke-width="0.567"></path>
                    <path d="M85.8098171,93 L85,92.9824247 C85.4794774,71.1809527 107.524997,53.3800666 107.747212,53.2028487 L108.002237,53 L108.257262,53.2028487 C108.478732,53.3793343 130.401958,71.0806269 131,92.796419 L130.190929,92.8183882 C129.636882,72.7283146 110.454059,56.0771484 108.002237,54.0310864 C105.543704,56.0837392 86.2535015,72.8352312 85.8098171,93" id="Fill-17" fill="#1C8D61"></path>
                    <path d="M85.8098171,93 L85,92.9824247 C85.4794774,71.1809527 107.524997,53.3800666 107.747212,53.2028487 L108.002237,53 L108.257262,53.2028487 C108.478732,53.3793343 130.401958,71.0806269 131,92.796419 L130.190929,92.8183882 C129.636882,72.7283146 110.454059,56.0771484 108.002237,54.0310864 C105.543704,56.0837392 86.2535015,72.8352312 85.8098171,93 Z" id="Stroke-19" stroke="#1C8D61" stroke-width="0.567"></path>
                    <path d="M71.699978,140.812225 C69.3563536,140.812225 67.2640959,141.500459 65.4365124,142.877666 C62.7380175,144.911286 62.0741138,147.616859 63.6148435,150.30097 C66.4397611,155.219992 76.4589402,159.46484 87.9256955,154.640543 C87.9619218,154.625002 89.7577148,153.839084 92.2137149,152.453736 C92.0495872,152.298328 91.8854596,152.142921 91.7213319,151.986773 C91.6666227,151.92905 87.6262734,147.677542 82.3579241,144.459124 C78.3796772,142.028845 74.8169245,140.812225 71.699978,140.812225 M139.40115,177 C138.661097,177 137.920305,176.978539 137.178773,176.934877 C124.051519,176.169679 108.738854,167.910874 92.8258666,153.029484 C90.2146107,154.517697 88.280566,155.362819 88.2406431,155.379839 C76.3436073,160.385445 65.8919297,155.878624 62.91841,150.70133 C61.1788049,147.671621 61.9395587,144.507226 64.9537406,142.235315 C75.7381094,134.106756 91.6193067,150.70873 92.2906035,151.419165 C92.5072224,151.626375 92.7245806,151.832105 92.9411995,152.036355 C95.5598486,150.509661 98.7529444,148.378356 101.358286,145.820791 L101.920904,146.395059 C99.3310877,148.937083 96.1779148,151.063208 93.5518726,152.609144 C109.252677,167.250022 124.332459,175.380801 137.226089,176.132677 C148.023026,176.761708 158.756383,172.664127 165.918854,165.16904 C169.849784,161.056658 172.197105,155.469384 172.197105,150.224007 L173,150.224007 C173,158.076532 168.45396,163.680087 166.499215,165.724807 C159.668696,172.872818 149.671696,177 139.40115,177" id="Fill-21" fill="#1C8D61"></path>
                    <path d="M71.699978,140.812225 C69.3563536,140.812225 67.2640959,141.500459 65.4365124,142.877666 C62.7380175,144.911286 62.0741138,147.616859 63.6148435,150.30097 C66.4397611,155.219992 76.4589402,159.46484 87.9256955,154.640543 C87.9619218,154.625002 89.7577148,153.839084 92.2137149,152.453736 C92.0495872,152.298328 91.8854596,152.142921 91.7213319,151.986773 C91.6666227,151.92905 87.6262734,147.677542 82.3579241,144.459124 C78.3796772,142.028845 74.8169245,140.812225 71.699978,140.812225 Z M139.40115,177 C138.661097,177 137.920305,176.978539 137.178773,176.934877 C124.051519,176.169679 108.738854,167.910874 92.8258666,153.029484 C90.2146107,154.517697 88.280566,155.362819 88.2406431,155.379839 C76.3436073,160.385445 65.8919297,155.878624 62.91841,150.70133 C61.1788049,147.671621 61.9395587,144.507226 64.9537406,142.235315 C75.7381094,134.106756 91.6193067,150.70873 92.2906035,151.419165 C92.5072224,151.626375 92.7245806,151.832105 92.9411995,152.036355 C95.5598486,150.509661 98.7529444,148.378356 101.358286,145.820791 L101.920904,146.395059 C99.3310877,148.937083 96.1779148,151.063208 93.5518726,152.609144 C109.252677,167.250022 124.332459,175.380801 137.226089,176.132677 C148.023026,176.761708 158.756383,172.664127 165.918854,165.16904 C169.849784,161.056658 172.197105,155.469384 172.197105,150.224007 L173,150.224007 C173,158.076532 168.45396,163.680087 166.499215,165.724807 C159.668696,172.872818 149.671696,177 139.40115,177 Z" id="Stroke-23" stroke="#1C8D61" stroke-width="0.567"></path>
                    <path d="M123.785522,152.453996 C126.243,153.84081 128.040271,154.62598 128.077976,154.64226 C139.540292,159.466506 149.560207,155.220223 152.385124,150.301253 C153.926593,147.61791 153.26195,144.912366 150.563456,142.878028 C146.305749,139.669265 140.613036,140.201345 133.642788,144.460209 C128.373701,147.678593 124.334093,151.929316 124.29343,151.972238 C124.124128,152.133564 123.954825,152.29415 123.785522,152.453996 M76.5988399,177 C66.3275579,177 56.3320398,172.873601 49.500044,165.725667 C47.5460385,163.680228 43,158.076732 43,150.22429 L43.8036337,150.22429 C43.8036337,155.469612 46.1502147,161.056827 50.0811444,165.169905 C57.2436133,172.664173 67.9703124,176.763931 78.7739001,176.132687 C91.6638304,175.380818 106.738432,167.255305 122.447365,152.608662 C119.821323,151.063483 116.668891,148.937381 114.079075,146.396123 L114.642432,145.821861 C117.248512,148.3794 120.439389,150.510681 123.058037,152.03662 C123.279832,151.827932 123.503104,151.616284 123.724898,151.404636 C124.380669,150.709009 140.259644,134.106471 151.046967,142.235683 C154.060408,144.507571 154.821162,147.672672 153.081557,150.702349 C150.108039,155.879588 139.653407,160.384881 127.763028,155.382289 C127.721627,155.363788 125.786104,154.517936 123.17337,153.029738 C107.252255,167.916151 91.9440302,176.170428 78.8204768,176.935618 C78.0796847,176.978539 77.3381533,177 76.5988399,177" id="Fill-25" fill="#1C8D61"></path>
                    <path d="M123.785522,152.453996 C126.243,153.84081 128.040271,154.62598 128.077976,154.64226 C139.540292,159.466506 149.560207,155.220223 152.385124,150.301253 C153.926593,147.61791 153.26195,144.912366 150.563456,142.878028 C146.305749,139.669265 140.613036,140.201345 133.642788,144.460209 C128.373701,147.678593 124.334093,151.929316 124.29343,151.972238 C124.124128,152.133564 123.954825,152.29415 123.785522,152.453996 Z M76.5988399,177 C66.3275579,177 56.3320398,172.873601 49.500044,165.725667 C47.5460385,163.680228 43,158.076732 43,150.22429 L43.8036337,150.22429 C43.8036337,155.469612 46.1502147,161.056827 50.0811444,165.169905 C57.2436133,172.664173 67.9703124,176.763931 78.7739001,176.132687 C91.6638304,175.380818 106.738432,167.255305 122.447365,152.608662 C119.821323,151.063483 116.668891,148.937381 114.079075,146.396123 L114.642432,145.821861 C117.248512,148.3794 120.439389,150.510681 123.058037,152.03662 C123.279832,151.827932 123.503104,151.616284 123.724898,151.404636 C124.380669,150.709009 140.259644,134.106471 151.046967,142.235683 C154.060408,144.507571 154.821162,147.672672 153.081557,150.702349 C150.108039,155.879588 139.653407,160.384881 127.763028,155.382289 C127.721627,155.363788 125.786104,154.517936 123.17337,153.029738 C107.252255,167.916151 91.9440302,176.170428 78.8204768,176.935618 C78.0796847,176.978539 77.3381533,177 76.5988399,177 Z" id="Stroke-27" stroke="#1C8D61" stroke-width="0.567"></path>
                    <polygon id="Fill-29" fill="#1C8D61" points="35.7499454 25.5013804 31.0605464 29.5398657 42 42.1923029 41.0621202 43 30.1226667 30.3475627 25.4340109 34.3853064 25 33.883926 35.3159344 25"></polygon>
                    <polygon id="Stroke-31" stroke="#1C8D61" stroke-width="0.567" points="35.7499454 25.5013804 31.0605464 29.5398657 42 42.1923029 41.0621202 43 30.1226667 30.3475627 25.4340109 34.3853064 25 33.883926 35.3159344 25"></polygon>
                    <path d="M58.4072268,20.0429287 C55.2859997,14.9591695 50.346669,15.1223929 47.176183,16.945295 C44.0049505,18.7681972 41.474831,22.8986161 44.5953118,27.9823753 C47.6822069,33.010523 52.663333,32.8732998 55.8345655,31.0503977 C59.0057979,29.2274955 61.4941219,25.0710764 58.4072268,20.0429287 M59.6252667,19.4174797 C62.4516863,24.0202354 60.7373251,28.9321045 56.1525097,31.5675125 C51.5676943,34.2036428 46.19175,33.1925244 43.3772719,28.6078243 C40.5404034,23.9862907 42.2734233,19.0635882 46.8582387,16.4281802 C51.4430542,13.7920499 56.7995934,14.814724 59.6252667,19.4174797" id="Fill-33" fill="#1C8D61"></path>
                    <path d="M58.4072268,20.0429287 C55.2859997,14.9591695 50.346669,15.1223929 47.176183,16.945295 C44.0049505,18.7681972 41.474831,22.8986161 44.5953118,27.9823753 C47.6822069,33.010523 52.663333,32.8732998 55.8345655,31.0503977 C59.0057979,29.2274955 61.4941219,25.0710764 58.4072268,20.0429287 Z M59.6252667,19.4174797 C62.4516863,24.0202354 60.7373251,28.9321045 56.1525097,31.5675125 C51.5676943,34.2036428 46.19175,33.1925244 43.3772719,28.6078243 C40.5404034,23.9862907 42.2734233,19.0635882 46.8582387,16.4281802 C51.4430542,13.7920499 56.7995934,14.814724 59.6252667,19.4174797 Z" id="Stroke-35" stroke="#1C8D61" stroke-width="0.567"></path>
                    <path d="M71.3379037,24.0115938 L73.0900783,23.4248928 C77.0322868,22.1065145 79.3446855,20.60012 80.2742152,18.3031516 C80.9361642,16.6865147 81.0032437,14.7255591 80.2063986,12.2254728 C79.0549906,8.61465659 76.9755272,7.08787483 74.5009584,6.78131034 C72.6699102,6.54194841 70.6140352,6.97008157 67.3603126,8.05815899 L66.3585434,8.3934167 L71.3379037,24.0115938 Z M67.2947074,7.41860203 C70.8609761,6.22556781 73.034793,5.87596348 74.8171902,6.03679658 C78.1114553,6.3063619 80.3346604,8.21068615 81.4654285,11.7573202 C82.2622736,14.2574064 82.1649715,16.5596604 81.1956364,18.5153305 C80.1142565,20.697526 77.9736107,22.4538535 73.6355596,23.9051268 L70.3604601,25 L65,8.18576834 L67.2947074,7.41860203 Z" id="Fill-37" fill="#1C8D61"></path>
                    <path d="M71.3379037,24.0115938 L73.0900783,23.4248928 C77.0322868,22.1065145 79.3446855,20.60012 80.2742152,18.3031516 C80.9361642,16.6865147 81.0032437,14.7255591 80.2063986,12.2254728 C79.0549906,8.61465659 76.9755272,7.08787483 74.5009584,6.78131034 C72.6699102,6.54194841 70.6140352,6.97008157 67.3603126,8.05815899 L66.3585434,8.3934167 L71.3379037,24.0115938 Z M67.2947074,7.41860203 C70.8609761,6.22556781 73.034793,5.87596348 74.8171902,6.03679658 C78.1114553,6.3063619 80.3346604,8.21068615 81.4654285,11.7573202 C82.2622736,14.2574064 82.1649715,16.5596604 81.1956364,18.5153305 C80.1142565,20.697526 77.9736107,22.4538535 73.6355596,23.9051268 L70.3604601,25 L65,8.18576834 L67.2947074,7.41860203 Z" id="Stroke-39" stroke="#1C8D61" stroke-width="0.567"></path>
                    <path d="M105.564693,8.28928806 C105.003966,2.27696273 100.435361,0.327438033 96.7323071,0.65862857 C93.0285003,0.990556726 88.874607,3.72195664 89.4353337,9.73428197 C89.9900391,15.6809593 94.5849873,17.6725282 98.2880414,17.3406001 C101.991848,17.0094095 106.119399,14.236703 105.564693,8.28928806 M106.954091,8.23101623 C107.462132,13.6753756 103.699618,17.4733713 98.345243,17.9528231 C92.9916203,18.4330125 88.5517187,15.2147846 88.0459357,9.79329142 C87.5363895,4.3268035 91.3207301,0.526594926 96.6751054,0.0471431457 C102.029481,-0.433046253 106.44605,2.78739448 106.954091,8.23101623" id="Fill-41" fill="#1C8D61"></path>
                    <path d="M105.564693,8.28928806 C105.003966,2.27696273 100.435361,0.327438033 96.7323071,0.65862857 C93.0285003,0.990556726 88.874607,3.72195664 89.4353337,9.73428197 C89.9900391,15.6809593 94.5849873,17.6725282 98.2880414,17.3406001 C101.991848,17.0094095 106.119399,14.236703 105.564693,8.28928806 Z M106.954091,8.23101623 C107.462132,13.6753756 103.699618,17.4733713 98.345243,17.9528231 C92.9916203,18.4330125 88.5517187,15.2147846 88.0459357,9.79329142 C87.5363895,4.3268035 91.3207301,0.526594926 96.6751054,0.0471431457 C102.029481,-0.433046253 106.44605,2.78739448 106.954091,8.23101623 Z" id="Stroke-43" stroke="#1C8D61" stroke-width="0.567"></path>
                    <polygon id="Fill-45" fill="#1C8D61" points="115 17.8805163 116.65726 1 126 1.93993866 125.937057 2.58297836 117.78022 1.76252343 117.091423 8.77658034 124.443592 9.51593116 124.380649 10.159695 117.02848 9.41962004 116.186618 18"></polygon>
                    <polygon id="Stroke-47" stroke="#1C8D61" stroke-width="0.567" points="115 17.8805163 116.65726 1 126 1.93993866 125.937057 2.58297836 117.78022 1.76252343 117.091423 8.77658034 124.443592 9.51593116 124.380649 10.159695 117.02848 9.41962004 116.186618 18"></polygon>
                    <polygon id="Fill-49" fill="#1C8D61" points="135.485279 3.30070895 131.358929 19.196781 140 21.3701859 139.835775 22 130 19.5266143 134.290576 3"></polygon>
                    <polygon id="Stroke-51" stroke="#1C8D61" stroke-width="0.567" points="135.485279 3.30070895 131.358929 19.196781 140 21.3701859 139.835775 22 130 19.5266143 134.290576 3"></polygon>
                    <path d="M161.821131,22.2910852 C164.413108,16.9184516 161.470478,13.0558306 158.106614,11.5472658 C154.741999,10.0387009 149.761529,10.3485214 147.169551,15.7211549 C144.605356,21.0351543 147.549488,24.9455513 150.914103,26.4541161 C154.277966,27.962681 159.256935,27.6050845 161.821131,22.2910852 M163.049542,22.9136215 C160.702346,27.7780917 155.513886,29.1824179 150.649799,27.001369 C145.786463,24.8203201 143.603706,19.943544 145.94114,15.0986186 C148.298098,10.2146037 153.50608,8.818964 158.370167,11.0000129 C163.233503,13.1810618 165.395987,18.0484275 163.049542,22.9136215" id="Fill-53" fill="#1C8D61"></path>
                    <path d="M161.821131,22.2910852 C164.413108,16.9184516 161.470478,13.0558306 158.106614,11.5472658 C154.741999,10.0387009 149.761529,10.3485214 147.169551,15.7211549 C144.605356,21.0351543 147.549488,24.9455513 150.914103,26.4541161 C154.277966,27.962681 159.256935,27.6050845 161.821131,22.2910852 Z M163.049542,22.9136215 C160.702346,27.7780917 155.513886,29.1824179 150.649799,27.001369 C145.786463,24.8203201 143.603706,19.943544 145.94114,15.0986186 C148.298098,10.2146037 153.50608,8.818964 158.370167,11.0000129 C163.233503,13.1810618 165.395987,18.0484275 163.049542,22.9136215 Z" id="Stroke-55" stroke="#1C8D61" stroke-width="0.567"></path>
                    <path d="M171.114329,28.662168 L172.634648,29.8085463 C174.836541,31.4691738 177.860288,32.8712032 179.962295,30.0664077 C181.683121,27.7699675 180.693077,25.6245605 177.704584,23.4806269 L175.948504,22.2112119 L171.114329,28.662168 Z M178.007179,22.967851 C181.069852,25.195037 183.309202,27.8988982 181.129342,30.8090486 C179.434223,33.0701249 176.890074,33.0715984 174.229148,31.2577275 C176.592621,33.1769532 176.879058,34.7646428 175.629751,37.4169318 C174.459766,39.9638659 173.884689,41.8624627 175.912516,42.9521114 L175.903703,43 C175.501956,42.9167476 174.776316,42.5343759 174.356943,42.2183115 C172.85425,41.084458 173.31108,39.4533003 174.603719,36.5608319 C176.058673,33.3780851 175.015014,32.2891732 172.358494,30.2859583 L170.786028,29.0997957 L165.978293,35.515388 L165,34.7779043 L175.324953,21 L178.007179,22.967851 Z" id="Fill-57" fill="#1C8D61"></path>
                    <path d="M171.114329,28.662168 L172.634648,29.8085463 C174.836541,31.4691738 177.860288,32.8712032 179.962295,30.0664077 C181.683121,27.7699675 180.693077,25.6245605 177.704584,23.4806269 L175.948504,22.2112119 L171.114329,28.662168 Z M178.007179,22.967851 C181.069852,25.195037 183.309202,27.8988982 181.129342,30.8090486 C179.434223,33.0701249 176.890074,33.0715984 174.229148,31.2577275 C176.592621,33.1769532 176.879058,34.7646428 175.629751,37.4169318 C174.459766,39.9638659 173.884689,41.8624627 175.912516,42.9521114 L175.903703,43 C175.501956,42.9167476 174.776316,42.5343759 174.356943,42.2183115 C172.85425,41.084458 173.31108,39.4533003 174.603719,36.5608319 C176.058673,33.3780851 175.015014,32.2891732 172.358494,30.2859583 L170.786028,29.0997957 L165.978293,35.515388 L165,34.7779043 L175.324953,21 L178.007179,22.967851 Z" id="Stroke-59" stroke="#1C8D61" stroke-width="0.567"></path>
                    <path d="M61.6585238,217 C43.4866937,208.377976 28.1003965,194.837531 17.1635923,177.842658 C5.93535598,160.395278 0,140.140435 0,119.268941 C0,94.5511411 8.0872445,71.2899394 23.3874368,52 L24.0129858,52.5005669 C8.82686418,71.6470646 0.799966764,94.7345098 0.799966764,119.268941 C0.799966764,139.985163 6.69043041,160.08917 17.8347696,177.406418 C28.6913563,194.275595 43.9628469,207.715483 62,216.273919 L61.6585238,217 Z" id="Fill-61" fill="#1C8D61"></path>
                    <path d="M61.6585238,217 C43.4866937,208.377976 28.1003965,194.837531 17.1635923,177.842658 C5.93535598,160.395278 0,140.140435 0,119.268941 C0,94.5511411 8.0872445,71.2899394 23.3874368,52 L24.0129858,52.5005669 C8.82686418,71.6470646 0.799966764,94.7345098 0.799966764,119.268941 C0.799966764,139.985163 6.69043041,160.08917 17.8347696,177.406418 C28.6913563,194.275595 43.9628469,207.715483 62,216.273919 L61.6585238,217 Z" id="Stroke-63" stroke="#1C8D61" stroke-width="0.567"></path>
                    <path d="M72.6316348,224.606056 C73.4308462,227.193776 75.1066121,228.383311 77.1948741,229.028571 C79.929178,229.872829 82.211556,228.95506 82.878071,226.889339 C83.6044889,224.634272 82.4943888,223.155892 80.0649075,221.293624 L79.0746133,220.546638 C76.3858053,218.534378 75.6199575,216.72186 76.2174704,214.867017 C77.0591447,212.253308 79.6804671,211.463255 82.5429178,212.347609 C84.5242645,212.959455 85.9460115,213.90841 87,215.045225 L86.3683652,217.004764 C85.695784,214.757865 84.1618138,213.496305 82.3313618,212.931239 C80.4804368,212.35949 78.2427965,212.548835 77.4754322,214.930875 C76.836973,216.91269 77.9645132,218.187616 79.7077646,219.536795 L80.5608129,220.194678 C82.6141947,221.755478 85.1452836,223.742492 84.1610555,226.799492 C83.3262056,229.391669 80.5562633,230.715602 76.9613285,229.604775 C74.8738247,228.960258 73.2359721,227.944475 72,226.566338 L72.6316348,224.606056 Z" id="Fill-65" fill="#1C8D61"></path>
                    <path d="M72.6316348,224.606056 C73.4308462,227.193776 75.1066121,228.383311 77.1948741,229.028571 C79.929178,229.872829 82.211556,228.95506 82.878071,226.889339 C83.6044889,224.634272 82.4943888,223.155892 80.0649075,221.293624 L79.0746133,220.546638 C76.3858053,218.534378 75.6199575,216.72186 76.2174704,214.867017 C77.0591447,212.253308 79.6804671,211.463255 82.5429178,212.347609 C84.5242645,212.959455 85.9460115,213.90841 87,215.045225 L86.3683652,217.004764 C85.695784,214.757865 84.1618138,213.496305 82.3313618,212.931239 C80.4804368,212.35949 78.2427965,212.548835 77.4754322,214.930875 C76.836973,216.91269 77.9645132,218.187616 79.7077646,219.536795 L80.5608129,220.194678 C82.6141947,221.755478 85.1452836,223.742492 84.1610555,226.799492 C83.3262056,229.391669 80.5562633,230.715602 76.9613285,229.604775 C74.8738247,228.960258 73.2359721,227.944475 72,226.566338 L72.6316348,224.606056 Z" id="Stroke-67" stroke="#1C8D61" stroke-width="0.567"></path>
                    <path d="M92.1627314,231.014079 C92.7153288,231.105387 93.0772364,231.610936 92.9859202,232.16281 C92.894604,232.715355 92.3890076,233.077229 91.8370816,232.985922 C91.2851557,232.894614 90.923248,232.388394 91.0138928,231.836519 C91.1058805,231.284645 91.6108054,230.922772 92.1627314,231.014079" id="Fill-69" fill="#1C8D61"></path>
                    <path d="M92.1627314,231.014079 C92.7153288,231.105387 93.0772364,231.610936 92.9859202,232.16281 C92.894604,232.715355 92.3890076,233.077229 91.8370816,232.985922 C91.2851557,232.894614 90.923248,232.388394 91.0138928,231.836519 C91.1058805,231.284645 91.6108054,230.922772 92.1627314,231.014079 Z" id="Stroke-71" stroke="#1C8D61" stroke-width="0.567"></path>
                    <path d="M103.335559,224.852088 L105.287645,224.869352 C108.114024,224.894873 111.463472,224.210312 111.495882,220.635129 C111.523015,217.708478 109.401346,216.549528 105.632086,216.605073 L103.410175,216.629843 L103.335559,224.852088 Z M105.569529,216.000827 C109.451844,215.969302 112.944495,216.827255 112.910579,220.536048 C112.884199,223.418412 110.783634,224.96393 107.484684,225.090784 C110.601992,225.230398 111.803392,226.358574 112.382234,229.290479 C112.962584,232.088774 113.641669,233.994587 115.978143,233.658312 L116,233.703349 C115.61712,233.878993 114.785034,234.005096 114.246891,234 C112.317416,233.982578 111.704657,232.368754 111.014266,229.211664 C110.28393,225.719049 108.759946,225.459336 105.349448,225.428561 L103.331036,225.410546 L103.25642,233.588504 L102,233.577245 L102.159031,216.015089 L105.569529,216.000827 Z" id="Fill-73" fill="#1C8D61"></path>
                    <path d="M103.335559,224.852088 L105.287645,224.869352 C108.114024,224.894873 111.463472,224.210312 111.495882,220.635129 C111.523015,217.708478 109.401346,216.549528 105.632086,216.605073 L103.410175,216.629843 L103.335559,224.852088 Z M105.569529,216.000827 C109.451844,215.969302 112.944495,216.827255 112.910579,220.536048 C112.884199,223.418412 110.783634,224.96393 107.484684,225.090784 C110.601992,225.230398 111.803392,226.358574 112.382234,229.290479 C112.962584,232.088774 113.641669,233.994587 115.978143,233.658312 L116,233.703349 C115.61712,233.878993 114.785034,234.005096 114.246891,234 C112.317416,233.982578 111.704657,232.368754 111.014266,229.211664 C110.28393,225.719049 108.759946,225.459336 105.349448,225.428561 L103.331036,225.410546 L103.25642,233.588504 L102,233.577245 L102.159031,216.015089 L105.569529,216.000827 Z" id="Stroke-75" stroke="#1C8D61" stroke-width="0.567"></path>
                    <path d="M123.850005,231.012072 C124.403266,230.927471 124.904156,231.296089 124.988086,231.849351 C125.072015,232.402612 124.704069,232.903502 124.150807,232.988103 C123.597545,233.072032 123.096655,232.703415 123.012055,232.150153 C122.927454,231.596891 123.296743,231.096001 123.850005,231.012072" id="Fill-77" fill="#1C8D61"></path>
                    <path d="M123.850005,231.012072 C124.403266,230.927471 124.904156,231.296089 124.988086,231.849351 C125.072015,232.402612 124.704069,232.903502 124.150807,232.988103 C123.597545,233.072032 123.096655,232.703415 123.012055,232.150153 C122.927454,231.596891 123.296743,231.096001 123.850005,231.012072 Z" id="Stroke-79" stroke="#1C8D61" stroke-width="0.567"></path>
                    <polygon id="Fill-81" fill="#1C8D61" points="129.209079 214 134.065069 230.013956 142.808575 227.468033 143 228.103402 133.048172 231 128 214.352159"></polygon>
                    <polygon id="Stroke-83" stroke="#1C8D61" stroke-width="0.567" points="129.209079 214 134.065069 230.013956 142.808575 227.468033 143 228.103402 133.048172 231 128 214.352159"></polygon>
                    <path d="M150.582963,223.093894 C151.090107,222.860789 151.672954,223.075808 151.906093,223.582878 C152.139231,224.089949 151.924181,224.672041 151.417037,224.905816 C150.909893,225.139591 150.327716,224.923902 150.093907,224.416832 C149.860769,223.909761 150.075819,223.327669 150.582963,223.093894" id="Fill-85" fill="#1C8D61"></path>
                    <path d="M150.582963,223.093894 C151.090107,222.860789 151.672954,223.075808 151.906093,223.582878 C152.139231,224.089949 151.924181,224.672041 151.417037,224.905816 C150.909893,225.139591 150.327716,224.923902 150.093907,224.416832 C149.860769,223.909761 150.075819,223.327669 150.582963,223.093894 Z" id="Stroke-87" stroke="#1C8D61" stroke-width="0.567"></path>
                </g>
            </g>
        </g>
    </g>
</svg>