<svg width="147" height="146" viewBox="0 0 147 146" fill="none" xmlns="http://www.w3.org/2000/svg">
<g id="Group 17">
<path id="Stroke 1" d="M34 41H47.1667L60.3333 93H102.467L113 61.8001H52.4434" stroke="#1C8D61" stroke-width="2" stroke-linecap="round" stroke-linejoin="round"/>
<g id="Group 16">
<path id="Stroke 2" fill-rule="evenodd" clip-rule="evenodd" d="M57.4775 103.925C57.4775 106.817 59.8422 109.163 62.7525 109.163C65.6686 109.163 68.0274 106.817 68.0274 103.925C68.0274 101.033 65.6686 98.6863 62.7525 98.6863C59.8422 98.6863 57.4775 101.033 57.4775 103.925Z" stroke="#1C8D61" stroke-width="2" stroke-linecap="round" stroke-linejoin="round"/>
<path id="Stroke 4" fill-rule="evenodd" clip-rule="evenodd" d="M91.7656 103.925C91.7656 106.817 94.1303 109.163 97.0405 109.163C99.9567 109.163 102.315 106.817 102.315 103.925C102.315 101.033 99.9567 98.6863 97.0405 98.6863C94.1303 98.6863 91.7656 101.033 91.7656 103.925Z" stroke="#1C8D61" stroke-width="2" stroke-linecap="round" stroke-linejoin="round"/>
<path id="Stroke 6" d="M54.6338 62.22L68.0272 48.9189L81.4009 62.2004" stroke="#1C8D61" stroke-width="2" stroke-linecap="round" stroke-linejoin="round"/>
<path id="Stroke 8" d="M91.7656 62.0153V48.9185H107.591V62.0153" stroke="#1C8D61" stroke-width="2" stroke-linecap="round" stroke-linejoin="round"/>
<path id="Stroke 10" d="M77.3779 61.5126L87.2636 37.2275L97.0408 41.1555L93.883 48.9184" stroke="#1C8D61" stroke-width="2" stroke-linecap="round" stroke-linejoin="round"/>
<path id="Stroke 12" d="M91.6268 54.4616L88.5518 62.0151" stroke="#1C8D61" stroke-width="2" stroke-linecap="round" stroke-linejoin="round"/>
<path id="Stroke 14" fill-rule="evenodd" clip-rule="evenodd" d="M145.301 73.1955C145.301 112.684 113.066 144.697 73.3033 144.697C33.5403 144.697 1.30566 112.684 1.30566 73.1955C1.30566 33.7068 33.5403 1.6944 73.3033 1.6944C113.066 1.6944 145.301 33.7068 145.301 73.1955Z" stroke="#1C8D61" stroke-width="2" stroke-linecap="round" stroke-linejoin="round"/>
<path id="Stroke 14_2" fill-rule="evenodd" clip-rule="evenodd" d="M89 56C89 64.2842 95.7158 71 104 71C112.284 71 119 64.2842 119 56C119 47.7158 112.284 41 104 41C95.7158 41 89 47.7158 89 56Z" fill="white" stroke="#1C8D61" stroke-width="2" stroke-linecap="round" stroke-linejoin="round"/>
<path id="Path 2" d="M99.6787 55.4669L104 61.5126L110.369 49.37" stroke="#1C8D61" stroke-width="2" stroke-linecap="round"/>
</g>
</g>
</svg>
